<?xml version="1.0" encoding="utf-8"?>
<!-- Generated by IcoMoon.io -->
<!DOCTYPE svg PUBLIC "-//W3C//DTD SVG 1.1//EN" "http://www.w3.org/Graphics/SVG/1.1/DTD/svg11.dtd">
<svg version="1.1" xmlns="http://www.w3.org/2000/svg" xmlns:xlink="http://www.w3.org/1999/xlink" width="90" height="80" viewBox="0 0 90 80">
<path fill="#444444" d="M17.5 10h-15c-1.375 0-2.5 1.125-2.5 2.5v55c0 1.375 1.125 2.5 2.5 2.5h15c1.375 0 2.5-1.125 2.5-2.5v-55c0-1.375-1.125-2.5-2.5-2.5zM15 25h-10v-5h10v5z"></path>
<path fill="#444444" d="M42.5 10h-15c-1.375 0-2.5 1.125-2.5 2.5v55c0 1.375 1.125 2.5 2.5 2.5h15c1.375 0 2.5-1.125 2.5-2.5v-55c0-1.375-1.125-2.5-2.5-2.5zM40 25h-10v-5h10v5z"></path>
<path fill="#444444" d="M59.772 13.866l-13.396 6.75c-1.228 0.619-1.726 2.13-1.108 3.357l22.498 44.652c0.619 1.228 2.13 1.726 3.358 1.108l13.396-6.749c1.228-0.619 1.726-2.13 1.108-3.357l-22.498-44.652c-0.619-1.228-2.13-1.727-3.358-1.108z"></path>
<path fill="#444444" d="M72.5 67.5c0 1.381-1.119 2.5-2.5 2.5s-2.5-1.119-2.5-2.5c0-1.381 1.119-2.5 2.5-2.5s2.5 1.119 2.5 2.5z"></path>
</svg>
