<?xml version="1.0" encoding="utf-8"?>
<!-- Generated by IcoMoon.io -->
<!DOCTYPE svg PUBLIC "-//W3C//DTD SVG 1.1//EN" "http://www.w3.org/Graphics/SVG/1.1/DTD/svg11.dtd">
<svg version="1.1" xmlns="http://www.w3.org/2000/svg" xmlns:xlink="http://www.w3.org/1999/xlink" width="80" height="80" viewBox="0 0 80 80">
<path fill="#444444" d="M77.52 68.078l-18.949-16.117c-1.959-1.763-4.054-2.572-5.746-2.494 4.473-5.24 7.175-12.037 7.175-19.467 0-16.569-13.431-30-30-30s-30 13.431-30 30 13.431 30 30 30c7.43 0 14.227-2.702 19.467-7.175-0.078 1.692 0.731 3.787 2.494 5.746l16.117 18.949c2.76 3.066 7.267 3.325 10.017 0.575s2.492-7.258-0.575-10.017zM30 50c-11.046 0-20-8.954-20-20s8.954-20 20-20 20 8.954 20 20-8.954 20-20 20z"></path>
</svg>
